<svg width="220" height="39" viewBox="0 0 220 39" fill="none" xmlns="http://www.w3.org/2000/svg">
<path d="M7.46411 0.291045C7.6555 0.291045 9.66507 0.19403 13.4928 0C13.5694 0.155224 13.5885 0.485075 13.5502 0.989552C13.5502 1.45522 13.4928 1.68806 13.378 1.68806C13.11 1.68806 12.7847 1.72687 12.4019 1.80448C12.0191 1.84328 11.5981 2.01791 11.1388 2.32836C10.7177 2.6 10.5072 2.94925 10.5072 3.37612C10.5072 4.5403 10.9474 5.97612 11.8278 7.68358L23.7129 31.5493C23.8278 31.7433 23.9809 31.8015 24.1722 31.7239C24.3636 31.6075 24.4976 31.4522 24.5742 31.2582L29.3397 21.1881L23.311 8.61493C22.201 6.32537 21.0909 4.46269 19.9809 3.02687C19.6746 2.63881 19.1579 2.32836 18.4306 2.09552C17.7033 1.82388 17.11 1.68806 16.6507 1.68806C16.4976 1.68806 16.4211 1.39701 16.4211 0.814925C16.4211 0.426866 16.4976 0.155224 16.6507 0C21.0526 0.19403 23.4641 0.291045 23.8852 0.291045C24.0383 0.291045 26.0287 0.19403 29.8565 0C29.933 0.155224 29.9522 0.485075 29.9139 0.989552C29.9139 1.45522 29.8565 1.68806 29.7416 1.68806C29.4737 1.68806 29.1483 1.72687 28.7656 1.80448C28.4211 1.84328 28.0191 1.99851 27.5598 2.27015C27.1388 2.54179 26.9282 2.91045 26.9282 3.37612C26.9282 4.38507 27.3684 5.8209 28.2488 7.68358L32.0383 15.5418L36.0574 6.98507C36.5933 5.78209 36.8612 4.65672 36.8612 3.60896C36.8612 2.94925 36.4402 2.46418 35.5981 2.15373C34.7943 1.84328 34.0861 1.68806 33.4737 1.68806C33.3206 1.68806 33.244 1.45522 33.244 0.989552C33.244 0.485075 33.3206 0.155224 33.4737 0C36.5359 0.19403 38.4689 0.291045 39.2727 0.291045C39.4258 0.291045 41.4163 0.19403 45.244 0C45.3206 0.155224 45.3397 0.485075 45.3014 0.989552C45.3014 1.45522 45.244 1.68806 45.1292 1.68806C44.7464 1.68806 44.0766 1.84328 43.1196 2.15373C42.201 2.46418 41.5502 2.85224 41.1675 3.31791C40.4785 4.17164 39.3684 6.17015 37.8373 9.31343L33.4163 18.5104L39.6746 31.5493C39.9043 31.9761 40.134 31.8791 40.3636 31.2582L50.6411 7.33433C51.2919 5.74328 51.6172 4.5209 51.6172 3.66716C51.6172 3.00746 51.2153 2.52239 50.4115 2.21194C49.6459 1.86269 48.9569 1.68806 48.3445 1.68806C48.1914 1.68806 48.1148 1.45522 48.1148 0.989552C48.1148 0.485075 48.1914 0.155224 48.3445 0C51.4067 0.19403 53.3589 0.291045 54.201 0.291045C55.0813 0.291045 55.8086 0.271642 56.3828 0.232836C56.9569 0.19403 57.5502 0.155224 58.1627 0.116418C58.7751 0.0776119 59.3493 0.038806 59.8852 0C59.9617 0.232836 60 0.523881 60 0.873134C60 1.41642 59.9234 1.68806 59.7703 1.68806C59.3876 1.68806 58.7751 1.84328 57.933 2.15373C57.0909 2.42537 56.4593 2.81343 56.0383 3.31791C54.9282 4.63731 53.8182 6.59701 52.7081 9.19701L40.5359 37.1373C39.9617 38.3791 39.2153 39 38.2966 39C38.067 39 37.8947 38.903 37.7799 38.709L30.7751 24.1567L24.5742 37.1373C24 38.3791 23.2536 39 22.3349 39C22.1053 39 21.933 38.903 21.8182 38.709L6.88995 8.61493C5.7799 6.32537 4.66986 4.46269 3.55981 3.02687C3.25359 2.63881 2.73684 2.32836 2.00957 2.09552C1.2823 1.82388 0.688995 1.68806 0.229665 1.68806C0.076555 1.68806 0 1.43582 0 0.931343C0 0.465672 0.076555 0.155224 0.229665 0C4.63158 0.19403 7.04306 0.291045 7.46411 0.291045Z" fill="#385E9D"/>
<path d="M66.2562 3.76241C66.2562 2.64361 66.1887 1.8406 66.0537 1.35338C65.9959 1.20902 65.7163 1.08271 65.2149 0.974436C64.7328 0.84812 64.3664 0.784962 64.1157 0.784962C64.0386 0.784962 64 0.667669 64 0.433083C64 0.216541 64.0386 0.0721804 64.1157 0C66.3333 0.0902256 67.4904 0.135338 67.5868 0.135338C67.8953 0.135338 69.0138 0.0902256 70.9421 0C70.9807 0.108271 71 0.243609 71 0.406015C71 0.658647 70.9614 0.784962 70.8843 0.784962C70.6915 0.784962 70.3444 0.84812 69.843 0.974436C69.3416 1.10075 69.0716 1.22707 69.0331 1.35338C68.8595 1.98496 68.7727 2.82406 68.7727 3.87068V14.1564C68.7727 15.203 68.8595 16.0421 69.0331 16.6737C69.0716 16.8 69.3416 16.9263 69.843 17.0526C70.3444 17.1609 70.6915 17.215 70.8843 17.215C70.9614 17.215 71 17.3504 71 17.6211C71 17.7654 70.9807 17.8917 70.9421 18C69.0138 17.9098 67.8953 17.8647 67.5868 17.8647C67.4904 17.8647 66.3333 17.9098 64.1157 18C64.0386 17.9278 64 17.7925 64 17.594C64 17.3414 64.0386 17.215 64.1157 17.215C64.3664 17.215 64.7328 17.1609 65.2149 17.0526C65.7163 16.9444 65.9959 16.818 66.0537 16.6737C66.1887 16.1865 66.2562 15.3835 66.2562 14.2647V3.76241Z" fill="#385E9D"/>
<path d="M78.131 0.162162C78.465 0.162162 78.7906 0.153153 79.1079 0.135135C79.4252 0.117117 79.7675 0.0990991 80.1349 0.0810811C80.5022 0.045045 80.8028 0.018018 81.0366 0C81.07 0.108108 81.0867 0.243243 81.0867 0.405405C81.0867 0.657658 81.0533 0.783784 80.9865 0.783784C80.8195 0.783784 80.5189 0.846847 80.0848 0.972973C79.6506 1.0991 79.4168 1.22523 79.3834 1.35135C79.2331 1.98198 79.158 2.81982 79.158 3.86487V14.0541C79.158 15.009 79.2331 15.8018 79.3834 16.4324C79.4335 16.6126 80.0013 16.7027 81.0867 16.7027H82.289C83.842 16.7027 84.894 16.5495 85.4451 16.2432C85.6956 16.0991 85.9711 15.7838 86.2717 15.2973C86.589 14.7928 86.8394 14.1982 87.0231 13.5135C87.0565 13.4054 87.1734 13.3514 87.3738 13.3514C87.6911 13.3514 87.8998 13.4054 88 13.5135C87.9165 13.7477 87.7829 14.1261 87.5992 14.6486C87.4322 15.1532 87.2987 15.5676 87.1985 15.8919C87.0983 16.1982 86.9897 16.5586 86.8728 16.973C86.7559 17.3874 86.6808 17.7297 86.6474 18C85.7791 18 84.4181 17.973 82.5645 17.9189C80.7277 17.8649 79.2415 17.8378 78.106 17.8378L75.0751 17.9189C75.025 17.8649 75 17.7207 75 17.4865C75 17.2523 75.025 17.1351 75.0751 17.1351C75.3089 17.1351 75.6346 17.0811 76.052 16.973C76.4695 16.8649 76.72 16.7297 76.8035 16.5676C76.9204 16.3514 76.9788 15.5045 76.9788 14.027V3.81081C76.9788 2.65766 76.9204 1.83784 76.8035 1.35135C76.7534 1.20721 76.5112 1.08108 76.0771 0.972973C75.6596 0.846847 75.3423 0.783784 75.1252 0.783784C75.0584 0.783784 75.025 0.666667 75.025 0.432432C75.025 0.216216 75.0584 0.0720721 75.1252 0C75.3423 0.018018 75.7848 0.0540541 76.4528 0.108108C77.1207 0.144144 77.6802 0.162162 78.131 0.162162Z" fill="#385E9D"/>
<path d="M94.131 0.162162C94.465 0.162162 94.7906 0.153153 95.1079 0.135135C95.4252 0.117117 95.7675 0.0990991 96.1349 0.0810811C96.5022 0.045045 96.8028 0.018018 97.0366 0C97.07 0.108108 97.0867 0.243243 97.0867 0.405405C97.0867 0.657658 97.0533 0.783784 96.9865 0.783784C96.8195 0.783784 96.5189 0.846847 96.0848 0.972973C95.6506 1.0991 95.4168 1.22523 95.3834 1.35135C95.2331 1.98198 95.158 2.81982 95.158 3.86487V14.0541C95.158 15.009 95.2331 15.8018 95.3834 16.4324C95.4335 16.6126 96.0013 16.7027 97.0867 16.7027H98.289C99.842 16.7027 100.894 16.5495 101.445 16.2432C101.696 16.0991 101.971 15.7838 102.272 15.2973C102.589 14.7928 102.839 14.1982 103.023 13.5135C103.057 13.4054 103.173 13.3514 103.374 13.3514C103.691 13.3514 103.9 13.4054 104 13.5135C103.917 13.7477 103.783 14.1261 103.599 14.6486C103.432 15.1532 103.299 15.5676 103.198 15.8919C103.098 16.1982 102.99 16.5586 102.873 16.973C102.756 17.3874 102.681 17.7297 102.647 18C101.779 18 100.418 17.973 98.5645 17.9189C96.7277 17.8649 95.2415 17.8378 94.106 17.8378L91.0751 17.9189C91.025 17.8649 91 17.7207 91 17.4865C91 17.2523 91.025 17.1351 91.0751 17.1351C91.3089 17.1351 91.6346 17.0811 92.052 16.973C92.4695 16.8649 92.72 16.7297 92.8035 16.5676C92.9204 16.3514 92.9788 15.5045 92.9788 14.027V3.81081C92.9788 2.65766 92.9204 1.83784 92.8035 1.35135C92.7534 1.20721 92.5112 1.08108 92.0771 0.972973C91.6596 0.846847 91.3423 0.783784 91.1252 0.783784C91.0584 0.783784 91.025 0.666667 91.025 0.432432C91.025 0.216216 91.0584 0.0720721 91.1252 0C91.3423 0.018018 91.7848 0.0540541 92.4528 0.108108C93.1207 0.144144 93.6802 0.162162 94.131 0.162162Z" fill="#385E9D"/>
<path d="M115.088 1.11669C113.403 1.11669 112.073 1.85229 111.097 3.32349C110.122 4.79468 109.634 6.49631 109.634 8.42836C109.634 9.84638 109.864 11.1846 110.326 12.4431C110.787 13.7016 111.505 14.7563 112.48 15.6071C113.456 16.4402 114.6 16.8567 115.912 16.8567C117.047 16.8567 118.041 16.4934 118.892 15.7666C119.743 15.0222 120.364 14.1093 120.754 13.0281C121.162 11.9291 121.366 10.7592 121.366 9.51846C121.366 8.10044 121.136 6.77105 120.674 5.53028C120.213 4.27179 119.495 3.226 118.52 2.39291C117.544 1.5421 116.4 1.11669 115.088 1.11669ZM109.474 15.3678C107.825 13.613 107 11.4948 107 9.01329C107 6.53176 107.825 4.41359 109.474 2.65879C111.141 0.886263 113.146 0 115.487 0C117.828 0 119.832 0.886263 121.499 2.65879C123.166 4.41359 124 6.53176 124 9.01329C124 11.4948 123.166 13.613 121.499 15.3678C119.832 17.1226 117.828 18 115.487 18C113.146 18 111.141 17.1226 109.474 15.3678Z" fill="#385E9D"/>
<path d="M130.351 0.135952C130.64 0.135952 131.685 0.0906344 133.486 0C133.523 0.108761 133.541 0.23565 133.541 0.380665C133.541 0.652568 133.505 0.78852 133.432 0.78852C133.252 0.78852 132.928 0.851964 132.459 0.978852C131.991 1.10574 131.739 1.23263 131.703 1.35952C131.541 1.99396 131.459 2.83686 131.459 3.88822V9.95166C131.459 12 131.892 13.6314 132.757 14.8459C133.622 16.0604 134.847 16.6677 136.432 16.6677C139.514 16.6677 141.054 14.6284 141.054 10.5498V3.75227C141.054 2.64653 140.991 1.84894 140.865 1.35952C140.811 1.2145 140.495 1.07855 139.919 0.951662C139.36 0.806647 138.964 0.734139 138.73 0.734139C138.658 0.734139 138.622 0.634441 138.622 0.435045C138.622 0.217523 138.658 0.0725076 138.73 0C138.964 0.0181269 139.432 0.0543807 140.135 0.108761C140.838 0.145015 141.432 0.163142 141.919 0.163142C142.387 0.163142 142.973 0.135952 143.676 0.081571C144.396 0.0271903 144.82 0 144.946 0C144.982 0.108761 145 0.244713 145 0.407855C145 0.625378 144.964 0.734139 144.892 0.734139C144.712 0.734139 144.315 0.806647 143.703 0.951662C143.108 1.09668 142.793 1.23263 142.757 1.35952C142.613 1.92145 142.541 2.76435 142.541 3.88822V10.4955C142.541 13.3051 141.955 15.2628 140.784 16.3686C139.613 17.4562 137.946 18 135.784 18C133.64 18 131.991 17.3656 130.838 16.0967C129.685 14.8278 129.108 12.7795 129.108 9.95166V3.77946C129.108 2.65559 129.045 1.84894 128.919 1.35952C128.865 1.2145 128.604 1.08761 128.135 0.978852C127.685 0.851964 127.342 0.78852 127.108 0.78852C127.036 0.78852 127 0.670695 127 0.435045C127 0.217523 127.036 0.0725076 127.108 0C129.18 0.0906344 130.261 0.135952 130.351 0.135952Z" fill="#385E9D"/>
<path d="M147 9.22734C147 6.69539 147.881 4.52897 149.643 2.72808C151.405 0.909361 153.566 0 156.125 0C157.442 0 159.64 0.401189 162.719 1.20357C162.793 3.23626 162.83 4.34175 162.83 4.52006C162.83 4.78752 162.635 4.92125 162.246 4.92125C162.06 4.92125 161.94 4.87667 161.884 4.78752C161.383 2.34473 159.491 1.12333 156.209 1.12333C154.354 1.12333 152.805 1.88113 151.563 3.39673C150.32 4.91233 149.699 6.73997 149.699 8.87964C149.699 10.8588 150.376 12.6865 151.73 14.3626C153.102 16.0208 154.818 16.8499 156.876 16.8499C158.509 16.8499 159.714 16.6538 160.493 16.2615C160.623 16.208 160.688 16.0743 160.688 15.8603L160.66 13.6672V13.4799C160.66 12.321 160.586 11.5542 160.437 11.1798C160.363 11.0015 160.057 10.8588 159.519 10.7519C159 10.6449 158.592 10.5914 158.295 10.5914C158.221 10.5914 158.184 10.4844 158.184 10.2704C158.184 10.0386 158.221 9.88707 158.295 9.81575C160.669 9.9049 161.884 9.94948 161.94 9.94948C162.088 9.94948 163.09 9.9049 164.944 9.81575C164.981 9.92273 165 10.0475 165 10.1902C165 10.4577 164.963 10.5914 164.889 10.5914C164.777 10.5914 164.518 10.6538 164.11 10.7786C163.72 10.8856 163.442 10.9837 163.275 11.0728C163.09 11.1976 162.997 11.7949 162.997 12.8648C162.997 13.2392 163.006 13.6493 163.025 14.0951C163.062 14.523 163.08 14.7548 163.08 14.7905C163.08 15.1114 163.145 15.4235 163.275 15.7266C163.405 16.0297 163.47 16.208 163.47 16.2615C163.47 16.4042 163.238 16.5646 162.774 16.7429C162.737 16.7608 162.552 16.8321 162.218 16.9569C161.903 17.0639 161.699 17.1352 161.606 17.1709C161.513 17.2065 161.3 17.2779 160.966 17.3848C160.651 17.474 160.391 17.5364 160.187 17.5721C160.002 17.6077 159.723 17.6612 159.352 17.7325C159 17.8039 158.657 17.8484 158.323 17.8663C158.008 17.9019 157.628 17.9287 157.182 17.9465C156.756 17.9822 156.301 18 155.819 18C153.371 18 151.284 17.1352 149.56 15.4056C147.853 13.6761 147 11.6166 147 9.22734Z" fill="#385E9D"/>
<path d="M179.873 14.2647V9.50075C179.873 9.50075 179.857 9.46466 179.823 9.39248C178.236 9.35639 176.987 9.33835 176.076 9.33835C173.477 9.33835 172.177 9.38346 172.177 9.47368V14.1564C172.177 15.203 172.253 16.0421 172.405 16.6737C172.439 16.8 172.675 16.9263 173.114 17.0526C173.553 17.1609 173.857 17.215 174.025 17.215C174.076 17.215 174.101 17.3233 174.101 17.5399C174.118 17.7564 174.11 17.9098 174.076 18C172.388 17.9098 171.409 17.8647 171.139 17.8647C171.055 17.8647 170.042 17.9098 168.101 18C168.034 17.9278 168 17.7925 168 17.594C168 17.3414 168.034 17.215 168.101 17.215C168.321 17.215 168.641 17.1609 169.063 17.0526C169.502 16.9444 169.747 16.818 169.797 16.6737C169.916 16.1865 169.975 15.3835 169.975 14.2647V3.76241C169.975 2.64361 169.916 1.8406 169.797 1.35338C169.747 1.20902 169.502 1.08271 169.063 0.974436C168.641 0.84812 168.321 0.784962 168.101 0.784962C168.034 0.784962 168 0.667669 168 0.433083C168 0.216541 168.034 0.0721804 168.101 0C168.321 0.0180451 168.768 0.0541353 169.443 0.108271C170.118 0.144361 170.684 0.162406 171.139 0.162406C171.477 0.162406 171.806 0.153383 172.127 0.135338C172.447 0.117293 172.793 0.0992481 173.165 0.081203C173.536 0.0451128 173.84 0.0180451 174.076 0C174.11 0.0721804 174.118 0.225564 174.101 0.46015C174.101 0.676692 174.076 0.784962 174.025 0.784962C173.857 0.784962 173.553 0.84812 173.114 0.974436C172.675 1.10075 172.439 1.22707 172.405 1.35338C172.253 1.98496 172.177 2.82406 172.177 3.87068V7.90376L172.228 7.98496C173.882 8.02105 175.165 8.0391 176.076 8.0391C177.055 8.0391 178.304 8.02105 179.823 7.98496C179.857 7.94887 179.873 7.91278 179.873 7.87669V3.76241C179.873 2.64361 179.814 1.8406 179.696 1.35338C179.646 1.20902 179.401 1.08271 178.962 0.974436C178.54 0.84812 178.219 0.784962 178 0.784962C177.932 0.784962 177.899 0.676692 177.899 0.46015C177.899 0.225564 177.932 0.0721804 178 0C178.203 0.0180451 178.65 0.0541353 179.342 0.108271C180.034 0.144361 180.608 0.162406 181.063 0.162406C181.384 0.162406 181.705 0.153383 182.025 0.135338C182.346 0.117293 182.684 0.0992481 183.038 0.081203C183.409 0.0451128 183.713 0.0180451 183.949 0C183.983 0.108271 184 0.243609 184 0.406015C184 0.658647 183.966 0.784962 183.899 0.784962C183.73 0.784962 183.426 0.84812 182.987 0.974436C182.549 1.10075 182.312 1.22707 182.278 1.35338C182.143 1.91278 182.076 2.75188 182.076 3.87068V14.1564C182.076 15.2752 182.143 16.1143 182.278 16.6737C182.312 16.8 182.549 16.9263 182.987 17.0526C183.426 17.1609 183.73 17.215 183.899 17.215C183.966 17.215 184 17.3504 184 17.6211C184 17.7654 183.983 17.8917 183.949 18C182.262 17.9098 181.3 17.8647 181.063 17.8647C180.962 17.8647 179.941 17.9098 178 18C177.932 17.9278 177.899 17.7835 177.899 17.5669C177.899 17.3323 177.932 17.215 178 17.215C178.219 17.215 178.54 17.1609 178.962 17.0526C179.401 16.9444 179.646 16.818 179.696 16.6737C179.814 16.1865 179.873 15.3835 179.873 14.2647Z" fill="#385E9D"/>
<path d="M199.607 13.1256C199.607 11.9637 199.245 10.9743 198.523 10.1573C197.801 9.32224 196.667 8.90469 195.122 8.90469C194.753 8.90469 194.148 8.941 193.308 9.01362C193.241 9.23147 193.207 9.53101 193.207 9.91225V13.888C193.207 15.2678 193.342 16.0756 193.61 16.3116C193.862 16.5658 194.316 16.6929 194.971 16.6929C195.391 16.6929 195.802 16.6566 196.205 16.584C196.625 16.5113 197.121 16.3752 197.692 16.1755C198.263 15.9576 198.725 15.5946 199.078 15.0862C199.43 14.5598 199.607 13.9062 199.607 13.1256ZM191.016 14.0242V3.73071C191.016 2.65961 190.957 1.87897 190.839 1.3888C190.789 1.24357 190.537 1.10741 190.083 0.980333C189.647 0.853253 189.319 0.789713 189.101 0.789713C189.034 0.789713 189 0.680787 189 0.462935C189 0.226929 189.034 0.0726172 189.101 0C189.974 0.0363086 190.974 0.0544629 192.099 0.0544629C192.955 0.0544629 193.652 0.0544629 194.19 0.0544629C194.744 0.0363086 195.231 0.0272315 195.651 0.0272315C196.088 0.0272315 196.533 0.0726172 196.986 0.163389C197.44 0.236006 197.902 0.381241 198.372 0.599092C198.859 0.816944 199.287 1.08926 199.657 1.41604C200.026 1.74281 200.329 2.17852 200.564 2.72315C200.799 3.24962 200.917 3.83964 200.917 4.49319C200.917 5.14675 200.724 5.75492 200.337 6.3177C199.951 6.88048 199.59 7.2708 199.254 7.48865C198.935 7.7065 198.658 7.86082 198.422 7.95159C198.288 8.00605 198.246 8.06051 198.297 8.11498C198.952 8.24206 199.733 8.75945 200.64 9.66717C201.547 10.5567 202 11.6097 202 12.826C202 14.3873 201.412 15.6309 200.236 16.5567C199.078 17.4644 197.532 17.9183 195.601 17.9183H192.149L189.101 18C189.05 17.9455 189.025 17.8003 189.025 17.5643C189.025 17.3283 189.05 17.2103 189.101 17.2103C189.319 17.2103 189.638 17.1467 190.058 17.0197C190.495 16.8926 190.755 16.7474 190.839 16.584C190.957 16.3661 191.016 15.5129 191.016 14.0242ZM196.281 7.67927C196.97 7.60666 197.541 7.3525 197.994 6.91679C198.464 6.46293 198.7 5.86384 198.7 5.11952C198.7 3.86687 198.406 2.89561 197.818 2.20575C197.247 1.49773 196.39 1.14372 195.248 1.14372C194.475 1.14372 193.879 1.20726 193.459 1.33434C193.359 1.3525 193.308 1.43419 193.308 1.57943L193.207 4.3298V7.57035C193.207 7.69743 193.762 7.76097 194.87 7.76097C195.408 7.76097 195.878 7.73374 196.281 7.67927Z" fill="#385E9D"/>
<path d="M207.2 0.162406C207.406 0.162406 208.542 0.108271 210.606 0C210.641 0.0721804 210.649 0.216541 210.632 0.433083C210.632 0.631579 210.606 0.730827 210.555 0.730827C210.262 0.730827 209.927 0.81203 209.548 0.974436C209.187 1.1188 209.006 1.34436 209.006 1.65113C209.006 1.84962 209.101 2.1203 209.29 2.46316L212.181 8.2015C212.267 8.29173 212.353 8.27368 212.439 8.14737C214.778 4.43008 215.948 2.25564 215.948 1.62406C215.948 1.42556 215.776 1.22707 215.432 1.02857C215.088 0.830075 214.667 0.730827 214.168 0.730827C214.099 0.730827 214.065 0.631579 214.065 0.433083C214.065 0.216541 214.099 0.0721804 214.168 0C216.077 0.108271 217.092 0.162406 217.213 0.162406C217.746 0.162406 218.297 0.135338 218.865 0.081203C219.432 0.0270677 219.794 0 219.948 0C219.983 0.108271 220 0.243609 220 0.406015C220 0.622556 219.966 0.730827 219.897 0.730827C219.69 0.730827 219.329 0.81203 218.813 0.974436C218.297 1.13684 217.953 1.33534 217.781 1.56992C217.127 2.63459 216.172 4.24962 214.916 6.41504C213.677 8.58045 213.058 9.78947 213.058 10.0421V14.1564C213.058 15.2752 213.127 16.1143 213.265 16.6737C213.299 16.8 213.531 16.9353 213.961 17.0797C214.391 17.206 214.684 17.2692 214.839 17.2692C214.908 17.2692 214.942 17.3865 214.942 17.6211C214.942 17.7654 214.925 17.8917 214.89 18C213.17 17.9098 212.206 17.8647 212 17.8647C211.948 17.8647 210.933 17.9098 208.955 18C208.886 17.9278 208.852 17.8015 208.852 17.6211C208.852 17.3865 208.886 17.2692 208.955 17.2692C209.161 17.2692 209.471 17.206 209.884 17.0797C210.314 16.9534 210.555 16.818 210.606 16.6737C210.744 16.1143 210.813 15.2481 210.813 14.0752V10.6917C210.813 10.4391 210.624 9.94286 210.245 9.20301C209.884 8.44511 208.817 6.39699 207.045 3.05865C206.77 2.51729 206.555 2.14737 206.4 1.94887C206.262 1.73233 206.056 1.52481 205.781 1.32632C205.591 1.18195 205.308 1.04662 204.929 0.920301C204.551 0.793985 204.275 0.730827 204.103 0.730827C204.034 0.730827 204 0.631579 204 0.433083C204 0.216541 204.034 0.0721804 204.103 0C204.378 0.0180451 204.843 0.0541353 205.497 0.108271C206.151 0.144361 206.718 0.162406 207.2 0.162406Z" fill="#385E9D"/>
<path d="M58.1551 37.0668C57.7085 36.6854 57.1694 36.133 56.538 35.4097C55.9065 34.6864 55.3905 34.0617 54.9901 33.5357L54.3663 32.7466C53.8119 33.0754 53.4037 33.3318 53.1419 33.5159C52.8801 33.6869 52.6183 33.9565 52.3564 34.3247C52.11 34.693 51.9868 35.1007 51.9868 35.5478C51.9868 36.4158 52.3025 37.0668 52.934 37.5008C53.5655 37.9348 54.3432 38.1517 55.2673 38.1517C55.7448 38.1517 56.253 38.0531 56.7921 37.8558C57.3465 37.6586 57.8009 37.3955 58.1551 37.0668ZM56.0066 26.7102C55.4984 26.7102 55.0671 26.8548 54.7129 27.1442C54.3586 27.4203 54.1815 27.782 54.1815 28.2291C54.1815 29.0708 54.582 30.1098 55.3828 31.346C56.1837 30.9514 56.7613 30.5569 57.1155 30.1624C57.4851 29.7547 57.67 29.1958 57.67 28.4856C57.67 28.0121 57.516 27.5979 57.2079 27.2428C56.8999 26.8877 56.4995 26.7102 56.0066 26.7102ZM55.8911 26C56.923 26 57.7393 26.1973 58.3399 26.5918C58.9406 26.9732 59.2409 27.5124 59.2409 28.2094C59.2409 29.0116 58.9406 29.6955 58.3399 30.261C57.7393 30.8265 56.8922 31.3986 55.7987 31.9772C56.692 33.2661 57.8317 34.5746 59.2178 35.9029C59.6029 35.4031 59.9186 34.9231 60.165 34.4628C60.4114 34.0025 60.5347 33.7132 60.5347 33.5948C60.5347 33.4765 60.4576 33.3976 60.3036 33.3581C60.165 33.3055 60.0033 33.2792 59.8185 33.2792C59.6337 33.2661 59.5259 33.2529 59.495 33.2398C59.4642 33.1872 59.4488 33.1082 59.4488 33.003C59.4488 32.8978 59.4719 32.8255 59.5182 32.786H61.3432C61.5743 32.786 61.813 32.7795 62.0594 32.7663C62.3212 32.7532 62.6216 32.74 62.9604 32.7269C63.3146 32.7137 63.6227 32.7006 63.8845 32.6874C63.9615 32.7269 64 32.8123 64 32.9439C64 33.1411 63.9538 33.2398 63.8614 33.2398C63.6612 33.2398 63.3762 33.2792 63.0066 33.3581C62.637 33.437 62.3905 33.5094 62.2673 33.5751C62.2519 33.5883 62.1441 33.7395 61.9439 34.0288C61.7437 34.305 61.451 34.6864 61.066 35.173C60.681 35.6596 60.2805 36.1067 59.8647 36.5144C60.2189 36.83 60.4653 37.047 60.604 37.1654C60.7426 37.2838 60.9274 37.435 61.1584 37.6191C61.3894 37.7901 61.5743 37.9084 61.7129 37.9742C61.8515 38.0268 61.9901 38.0531 62.1287 38.0531C62.3443 38.0531 62.5754 37.9413 62.8218 37.7178C63.0836 37.4942 63.253 37.3035 63.33 37.1457C63.4532 37.1457 63.5688 37.1851 63.6766 37.264C63.7998 37.3429 63.8614 37.4219 63.8614 37.5008C63.7998 37.606 63.7305 37.7112 63.6535 37.8164C63.5765 37.9216 63.4378 38.0728 63.2376 38.2701C63.0528 38.4674 62.791 38.6318 62.4521 38.7633C62.1287 38.8816 61.7591 38.9408 61.3432 38.9408C60.9428 38.9408 60.5193 38.8225 60.0726 38.5857C59.626 38.349 59.2871 38.1123 59.0561 37.8756L58.6865 37.5205C57.3619 38.5068 55.9604 39 54.4818 39C53.1111 39 52.0176 38.7172 51.2013 38.1517C50.4004 37.5862 50 36.8103 50 35.824C50 34.9691 50.3388 34.259 51.0165 33.6935C51.6942 33.1148 52.6337 32.5625 53.835 32.0364C53.5424 31.6156 53.319 31.2802 53.165 31.0303C53.0264 30.7673 52.8801 30.4188 52.7261 29.9848C52.5721 29.5508 52.495 29.1234 52.495 28.7026C52.495 27.953 52.8185 27.3151 53.4653 26.7891C54.1122 26.263 54.9208 26 55.8911 26Z" fill="#7B7B7B"/>
<path d="M75.255 25.2261L79.4609 36.0808C79.7132 36.7249 79.9165 37.2183 80.0707 37.5609C80.1548 37.7665 80.3721 37.9378 80.7226 38.0749C81.0731 38.1982 81.3325 38.2599 81.5007 38.2599C81.5568 38.2599 81.5848 38.3901 81.5848 38.6505C81.5848 38.7053 81.5708 38.7739 81.5427 38.8561C80.1408 38.7876 79.3697 38.7533 79.2295 38.7533C79.2155 38.7533 78.4024 38.7876 76.7902 38.8561C76.7341 38.8013 76.706 38.6916 76.706 38.5272C76.7201 38.349 76.7551 38.2599 76.8112 38.2599C76.9794 38.2599 77.1897 38.2256 77.4421 38.1571C77.6944 38.0886 77.8416 37.9995 77.8837 37.8899C77.9117 37.7802 77.9257 37.6706 77.9257 37.5609C77.9257 37.3828 77.8977 37.1772 77.8416 36.9442C77.7996 36.6975 77.7575 36.5056 77.7154 36.3686L77.6313 36.1424L76.7691 33.8194C76.7271 33.7646 76.685 33.7372 76.643 33.7372C76.0962 33.696 75.5635 33.6755 75.0448 33.6755C74.3157 33.6755 73.4255 33.7097 72.3741 33.7783L72.2689 33.8399L71.3647 36.1013C71.1263 36.7866 71.0072 37.2594 71.0072 37.5198C71.0072 37.7117 71.0632 37.8488 71.1754 37.931C71.3016 38.0269 71.5049 38.1092 71.7852 38.1777C72.0656 38.2325 72.2689 38.2599 72.3951 38.2599C72.4371 38.2599 72.4582 38.3421 72.4582 38.5066C72.4722 38.6711 72.4652 38.7876 72.4371 38.8561C71.0352 38.7876 70.3132 38.7533 70.2711 38.7533C69.9908 38.7533 69.7454 38.7602 69.5351 38.7739C69.3248 38.7876 69.0865 38.8013 68.8201 38.815C68.5678 38.8287 68.3224 38.8424 68.0841 38.8561C68.028 38.8013 68 38.6985 68 38.5477C68 38.3559 68.028 38.2599 68.0841 38.2599C68.2523 38.2599 68.4696 38.2256 68.736 38.1571C69.0024 38.0886 69.1846 37.9927 69.2828 37.8693C69.5772 37.4993 69.9066 36.8551 70.2711 35.9369L73.9302 26.7474C73.9582 26.6789 73.9933 26.5693 74.0354 26.4185C74.0914 26.2677 74.1335 26.1581 74.1615 26.0896C74.1896 26.0073 74.2316 25.9114 74.2877 25.8018C74.3438 25.6784 74.3928 25.5893 74.4349 25.5345C74.477 25.4797 74.526 25.418 74.5821 25.3495C74.6522 25.281 74.7223 25.233 74.7924 25.2056C74.8765 25.1782 74.9676 25.1645 75.0658 25.1645L75.255 25.2261ZM72.8157 32.6476C73.5447 32.675 74.0424 32.6887 74.3087 32.6887C74.9256 32.6887 75.5635 32.6681 76.2224 32.627L76.2855 32.5242L74.5821 27.9809L72.7736 32.5653C72.7736 32.6202 72.7876 32.6476 72.8157 32.6476Z" fill="#7B7B7B"/>
<path d="M84.7535 28.721C84.7535 27.6657 85.167 26.8023 85.9942 26.1307C86.8213 25.4454 87.7817 25.1028 88.8752 25.1028C89.1836 25.1028 89.471 25.1233 89.7374 25.1645C90.0178 25.1919 90.2421 25.2261 90.4103 25.2673C90.5926 25.3084 90.8449 25.3769 91.1673 25.4728C91.5038 25.5551 91.7982 25.6236 92.0506 25.6784C92.2188 26.4048 92.3029 27.3847 92.3029 28.6182C92.3029 28.7141 92.2328 28.7621 92.0926 28.7621C91.7562 28.7621 91.5739 28.6936 91.5459 28.5565C91.4758 27.9535 91.1744 27.371 90.6416 26.8091C90.1229 26.2335 89.485 25.9457 88.728 25.9457C87.8868 25.9457 87.291 26.1512 86.9405 26.5624C86.604 26.9736 86.4358 27.4807 86.4358 28.0837C86.4358 28.3441 86.4849 28.5977 86.583 28.8443C86.6811 29.0773 86.7793 29.2761 86.8774 29.4405C86.9755 29.5913 87.1508 29.7695 87.4031 29.975C87.6695 30.1806 87.8588 30.3245 87.9709 30.4068C88.0971 30.489 88.3354 30.6397 88.6859 30.859C89.0504 31.0783 89.2817 31.2154 89.3799 31.2702C89.45 31.3113 89.6953 31.4621 90.1159 31.7225C90.5365 31.9692 90.8239 32.1473 90.9781 32.257C91.1323 32.3529 91.3706 32.5379 91.6931 32.812C92.0295 33.0724 92.2679 33.3054 92.4081 33.511C92.5623 33.7166 92.7025 33.977 92.8286 34.2922C92.9688 34.5937 93.0389 34.909 93.0389 35.2379C93.0389 36.3343 92.5973 37.2389 91.7141 37.9515C90.8449 38.6505 89.8215 39 88.6439 39C88.3074 39 87.9499 38.9726 87.5714 38.9178C87.1928 38.8767 86.8774 38.8355 86.6251 38.7944C86.3727 38.7396 86.0503 38.6711 85.6577 38.5888C85.2792 38.4929 85.0128 38.4312 84.8586 38.4038C84.5081 36.7181 84.3329 35.6285 84.3329 35.1351C84.3329 35.0529 84.445 35.0117 84.6693 35.0117C84.9217 35.0117 85.0969 35.0734 85.1951 35.1968C85.6717 37.1703 86.8353 38.1571 88.6859 38.1571C89.3869 38.1571 89.9827 37.9515 90.4734 37.5404C90.9641 37.1292 91.2094 36.5467 91.2094 35.793C91.2094 35.5188 91.1673 35.2653 91.0832 35.0323C90.9991 34.7993 90.908 34.6074 90.8099 34.4567C90.7257 34.3059 90.5645 34.1483 90.3262 33.9838C90.1019 33.8057 89.9266 33.6755 89.8005 33.5932C89.6743 33.511 89.443 33.3808 89.1065 33.2026C88.77 33.0245 88.5387 32.9011 88.4125 32.8326C88.006 32.5996 87.7186 32.4351 87.5503 32.3392C87.3961 32.2433 87.1298 32.0788 86.7512 31.8458C86.3867 31.5991 86.1204 31.3867 85.9521 31.2085C85.7839 31.0166 85.5876 30.7905 85.3633 30.5301C85.139 30.256 84.9778 29.9682 84.8796 29.6667C84.7955 29.3651 84.7535 29.0499 84.7535 28.721Z" fill="#7B7B7B"/>
<path d="M96.5861 28.721C96.5861 27.6657 96.9997 26.8023 97.8268 26.1307C98.654 25.4454 99.6143 25.1028 100.708 25.1028C101.016 25.1028 101.304 25.1233 101.57 25.1645C101.85 25.1919 102.075 25.2261 102.243 25.2673C102.425 25.3084 102.678 25.3769 103 25.4728C103.336 25.5551 103.631 25.6236 103.883 25.6784C104.051 26.4048 104.136 27.3847 104.136 28.6182C104.136 28.7141 104.065 28.7621 103.925 28.7621C103.589 28.7621 103.407 28.6936 103.379 28.5565C103.308 27.9535 103.007 27.371 102.474 26.8091C101.956 26.2335 101.318 25.9457 100.561 25.9457C99.7195 25.9457 99.1236 26.1512 98.7732 26.5624C98.4367 26.9736 98.2685 27.4807 98.2685 28.0837C98.2685 28.3441 98.3175 28.5977 98.4157 28.8443C98.5138 29.0773 98.6119 29.2761 98.7101 29.4405C98.8082 29.5913 98.9834 29.7695 99.2358 29.975C99.5022 30.1806 99.6914 30.3245 99.8036 30.4068C99.9298 30.489 100.168 30.6397 100.519 30.859C100.883 31.0783 101.114 31.2154 101.213 31.2702C101.283 31.3113 101.528 31.4621 101.949 31.7225C102.369 31.9692 102.657 32.1473 102.811 32.257C102.965 32.3529 103.203 32.5379 103.526 32.812C103.862 33.0724 104.101 33.3054 104.241 33.511C104.395 33.7166 104.535 33.977 104.661 34.2922C104.801 34.5937 104.872 34.909 104.872 35.2379C104.872 36.3343 104.43 37.2389 103.547 37.9515C102.678 38.6505 101.654 39 100.477 39C100.14 39 99.7826 38.9726 99.404 38.9178C99.0255 38.8767 98.7101 38.8355 98.4577 38.7944C98.2054 38.7396 97.8829 38.6711 97.4904 38.5888C97.1119 38.4929 96.8455 38.4312 96.6913 38.4038C96.3408 36.7181 96.1655 35.6285 96.1655 35.1351C96.1655 35.0529 96.2777 35.0117 96.502 35.0117C96.7544 35.0117 96.9296 35.0734 97.0277 35.1968C97.5044 37.1703 98.668 38.1571 100.519 38.1571C101.22 38.1571 101.815 37.9515 102.306 37.5404C102.797 37.1292 103.042 36.5467 103.042 35.793C103.042 35.5188 103 35.2653 102.916 35.0323C102.832 34.7993 102.741 34.6074 102.643 34.4567C102.558 34.3059 102.397 34.1483 102.159 33.9838C101.935 33.8057 101.759 33.6755 101.633 33.5932C101.507 33.511 101.276 33.3808 100.939 33.2026C100.603 33.0245 100.371 32.9011 100.245 32.8326C99.8386 32.5996 99.5512 32.4351 99.383 32.3392C99.2288 32.2433 98.9624 32.0788 98.5839 31.8458C98.2194 31.5991 97.953 31.3867 97.7848 31.2085C97.6166 31.0166 97.4203 30.7905 97.196 30.5301C96.9717 30.256 96.8104 29.9682 96.7123 29.6667C96.6282 29.3651 96.5861 29.0499 96.5861 28.721Z" fill="#7B7B7B"/>
<path d="M114.454 25.9457C113.122 25.9457 112.071 26.5144 111.3 27.652C110.529 28.7895 110.143 30.1052 110.143 31.5991C110.143 32.6955 110.325 33.7303 110.69 34.7034C111.054 35.6765 111.622 36.4919 112.393 37.1498C113.164 37.7939 114.069 38.116 115.106 38.116C116.003 38.116 116.788 37.835 117.461 37.2731C118.134 36.6975 118.625 35.9917 118.933 35.1557C119.256 34.3059 119.417 33.4014 119.417 32.442C119.417 31.3456 119.235 30.3177 118.87 29.3583C118.506 28.3852 117.938 27.5766 117.167 26.9325C116.396 26.2746 115.492 25.9457 114.454 25.9457ZM110.017 36.9648C108.713 35.6079 108.061 33.9701 108.061 32.0514C108.061 30.1326 108.713 28.4949 110.017 27.138C111.335 25.7675 112.919 25.0822 114.77 25.0822C116.62 25.0822 118.204 25.7675 119.522 27.138C120.84 28.4949 121.499 30.1326 121.499 32.0514C121.499 33.9701 120.84 35.6079 119.522 36.9648C118.204 38.3216 116.62 39 114.77 39C112.919 39 111.335 38.3216 110.017 36.9648Z" fill="#7B7B7B"/>
<path d="M137.285 35.0323C137.285 35.1831 137.187 35.7107 136.991 36.6153C136.794 37.5061 136.654 37.9721 136.57 38.0132C135.547 38.6163 133.871 38.9178 131.544 38.9178C129.694 38.9178 128.116 38.2531 126.813 36.9236C125.523 35.5942 124.878 34.0113 124.878 32.1747C124.878 30.2286 125.544 28.5634 126.876 27.1791C128.207 25.7812 129.841 25.0822 131.775 25.0822C133.43 25.0822 135.133 25.2535 136.885 25.5962C136.857 27.4327 136.843 28.4195 136.843 28.5565C136.843 28.7621 136.696 28.8649 136.402 28.8649C136.262 28.8649 136.17 28.8306 136.128 28.7621C136.086 28.5839 136.03 28.4058 135.96 28.2276C135.904 28.0357 135.771 27.7959 135.561 27.5081C135.364 27.2066 135.119 26.953 134.825 26.7474C134.544 26.5281 134.138 26.3431 133.605 26.1924C133.086 26.0279 132.497 25.9457 131.838 25.9457C130.465 25.9457 129.294 26.5419 128.327 27.7342C127.359 28.9129 126.876 30.2491 126.876 31.743C126.876 32.8532 127.072 33.8742 127.464 34.8062C127.857 35.7381 128.474 36.5125 129.315 37.1292C130.17 37.7323 131.18 38.0338 132.343 38.0338C133.731 38.0338 134.804 37.6363 135.561 36.8414C135.757 36.6358 135.925 36.3686 136.065 36.0396C136.22 35.697 136.332 35.4161 136.402 35.1968C136.486 34.9638 136.549 34.8473 136.591 34.8473C136.675 34.8473 136.773 34.861 136.885 34.8884C137.012 34.9158 137.11 34.9432 137.18 34.9706L137.285 35.0323Z" fill="#7B7B7B"/>
<path d="M141.694 28.0426C141.694 27.1929 141.645 26.583 141.547 26.2129C141.505 26.1033 141.302 26.0073 140.937 25.9251C140.587 25.8292 140.321 25.7812 140.138 25.7812C140.082 25.7812 140.054 25.6921 140.054 25.514C140.054 25.3495 140.082 25.2398 140.138 25.185C141.75 25.2535 142.592 25.2878 142.662 25.2878C142.886 25.2878 143.699 25.2535 145.101 25.185C145.129 25.2673 145.143 25.37 145.143 25.4934C145.143 25.6853 145.115 25.7812 145.059 25.7812C144.919 25.7812 144.667 25.8292 144.302 25.9251C143.938 26.021 143.741 26.117 143.713 26.2129C143.587 26.6926 143.524 27.3299 143.524 28.1248V35.9369C143.524 36.7318 143.587 37.3691 143.713 37.8488C143.741 37.9447 143.938 38.0406 144.302 38.1366C144.667 38.2188 144.919 38.2599 145.059 38.2599C145.115 38.2599 145.143 38.3627 145.143 38.5683C145.143 38.6779 145.129 38.7739 145.101 38.8561C143.699 38.7876 142.886 38.7533 142.662 38.7533C142.592 38.7533 141.75 38.7876 140.138 38.8561C140.082 38.8013 140.054 38.6985 140.054 38.5477C140.054 38.3559 140.082 38.2599 140.138 38.2599C140.321 38.2599 140.587 38.2188 140.937 38.1366C141.302 38.0543 141.505 37.9584 141.547 37.8488C141.645 37.4787 141.694 36.8688 141.694 36.0191V28.0426Z" fill="#7B7B7B"/>
<path d="M155.125 25.2261L159.331 36.0808C159.583 36.7249 159.787 37.2183 159.941 37.5609C160.025 37.7665 160.242 37.9378 160.593 38.0749C160.943 38.1982 161.203 38.2599 161.371 38.2599C161.427 38.2599 161.455 38.3901 161.455 38.6505C161.455 38.7053 161.441 38.7739 161.413 38.8561C160.011 38.7876 159.24 38.7533 159.1 38.7533C159.086 38.7533 158.273 38.7876 156.66 38.8561C156.604 38.8013 156.576 38.6916 156.576 38.5272C156.59 38.349 156.625 38.2599 156.681 38.2599C156.85 38.2599 157.06 38.2256 157.312 38.1571C157.565 38.0886 157.712 37.9995 157.754 37.8899C157.782 37.7802 157.796 37.6706 157.796 37.5609C157.796 37.3828 157.768 37.1772 157.712 36.9442C157.67 36.6975 157.628 36.5056 157.586 36.3686L157.502 36.1424L156.639 33.8194C156.597 33.7646 156.555 33.7372 156.513 33.7372C155.966 33.696 155.434 33.6755 154.915 33.6755C154.186 33.6755 153.296 33.7097 152.244 33.7783L152.139 33.8399L151.235 36.1013C150.997 36.7866 150.877 37.2594 150.877 37.5198C150.877 37.7117 150.933 37.8488 151.046 37.931C151.172 38.0269 151.375 38.1092 151.655 38.1777C151.936 38.2325 152.139 38.2599 152.265 38.2599C152.307 38.2599 152.328 38.3421 152.328 38.5066C152.342 38.6711 152.335 38.7876 152.307 38.8561C150.905 38.7876 150.183 38.7533 150.141 38.7533C149.861 38.7533 149.616 38.7602 149.405 38.7739C149.195 38.7876 148.957 38.8013 148.69 38.815C148.438 38.8287 148.193 38.8424 147.954 38.8561C147.898 38.8013 147.87 38.6985 147.87 38.5477C147.87 38.3559 147.898 38.2599 147.954 38.2599C148.123 38.2599 148.34 38.2256 148.606 38.1571C148.873 38.0886 149.055 37.9927 149.153 37.8693C149.447 37.4993 149.777 36.8551 150.141 35.9369L153.8 26.7474C153.828 26.6789 153.864 26.5693 153.906 26.4185C153.962 26.2677 154.004 26.1581 154.032 26.0896C154.06 26.0073 154.102 25.9114 154.158 25.8018C154.214 25.6784 154.263 25.5893 154.305 25.5345C154.347 25.4797 154.396 25.418 154.452 25.3495C154.522 25.281 154.593 25.233 154.663 25.2056C154.747 25.1782 154.838 25.1645 154.936 25.1645L155.125 25.2261ZM152.686 32.6476C153.415 32.675 153.913 32.6887 154.179 32.6887C154.796 32.6887 155.434 32.6681 156.093 32.627L156.156 32.5242L154.452 27.9809L152.644 32.5653C152.644 32.6202 152.658 32.6476 152.686 32.6476Z" fill="#7B7B7B"/>
<path d="M168.009 25.2673C168.977 25.2947 169.769 25.3084 170.386 25.3084C171.003 25.3084 171.795 25.2947 172.762 25.2673C173.729 25.2398 174.479 25.2261 175.012 25.2261C175.363 25.2261 175.846 25.1508 176.463 25L176.863 27.9398C176.765 28.0357 176.596 28.0837 176.358 28.0837C176.232 28.0837 176.162 28.0494 176.148 27.9809C175.951 27.2134 175.706 26.72 175.412 26.5007C175.131 26.2677 174.592 26.1512 173.792 26.1512C172.306 26.1512 171.535 26.254 171.479 26.4596C171.353 26.8982 171.29 27.5835 171.29 28.5154V35.9369C171.29 36.7318 171.353 37.3691 171.479 37.8488C171.507 37.9447 171.704 38.0406 172.068 38.1366C172.433 38.2188 172.685 38.2599 172.825 38.2599C172.881 38.2599 172.909 38.3627 172.909 38.5683C172.909 38.6779 172.895 38.7739 172.867 38.8561C171.465 38.7876 170.652 38.7533 170.428 38.7533C170.358 38.7533 169.516 38.7876 167.904 38.8561C167.848 38.8013 167.82 38.6985 167.82 38.5477C167.82 38.3559 167.848 38.2599 167.904 38.2599C168.087 38.2599 168.353 38.2188 168.703 38.1366C169.068 38.0543 169.271 37.9584 169.313 37.8488C169.411 37.4787 169.46 36.8688 169.46 36.0191V28.5771C169.46 27.3847 169.397 26.6789 169.271 26.4596C169.159 26.254 168.402 26.1512 167 26.1512C166.201 26.1512 165.654 26.2677 165.36 26.5007C165.079 26.72 164.841 27.2134 164.645 27.9809C164.631 28.0494 164.561 28.0837 164.434 28.0837C164.196 28.0837 164.028 28.0357 163.93 27.9398L164.329 25C164.946 25.1508 165.43 25.2261 165.78 25.2261C166.313 25.2261 167.056 25.2398 168.009 25.2673Z" fill="#7B7B7B"/>
<path d="M182.113 25.3084C182.744 25.3084 183.838 25.281 185.394 25.2261C186.95 25.1713 188.121 25.1439 188.906 25.1439C188.962 25.5414 189.067 26.069 189.221 26.7269C189.389 27.371 189.487 27.7753 189.515 27.9398C189.445 28.0083 189.319 28.0426 189.137 28.0426C188.955 28.0426 188.857 27.9946 188.843 27.8987C188.632 27.1449 188.338 26.6652 187.959 26.4596C187.581 26.2403 187.062 26.1307 186.403 26.1307H184.994C183.789 26.1307 183.172 26.2198 183.144 26.3979C183.074 26.7269 183.038 27.3025 183.038 28.1248V31.4141C183.038 31.4963 183.34 31.5374 183.943 31.5374H185.057C185.45 31.5374 185.73 31.5374 185.898 31.5374C186.081 31.5374 186.27 31.51 186.466 31.4552C186.662 31.4004 186.789 31.3661 186.845 31.3524C186.901 31.3387 186.971 31.2496 187.055 31.0852C187.153 30.9207 187.209 30.8042 187.223 30.7357C187.237 30.6535 187.286 30.4547 187.37 30.1395C187.384 30.0436 187.49 29.9956 187.686 29.9956C187.854 29.9956 187.973 30.0299 188.043 30.0984V33.9838C187.987 34.0387 187.875 34.0661 187.707 34.0661C187.525 34.0661 187.413 34.0113 187.37 33.9016C187.272 33.5316 187.188 33.2575 187.118 33.0793C187.048 32.8874 186.992 32.7778 186.95 32.7504C186.922 32.7093 186.866 32.6613 186.782 32.6065C186.599 32.4968 185.856 32.442 184.553 32.442C183.543 32.442 183.038 32.5037 183.038 32.627V35.8135C183.038 36.7044 183.102 37.328 183.228 37.6843C183.27 37.8213 183.746 37.8899 184.658 37.8899H185.667C186.971 37.8899 187.854 37.7734 188.317 37.5404C188.527 37.4307 188.758 37.1909 189.011 36.8209C189.277 36.4371 189.487 35.9848 189.642 35.464C189.67 35.3818 189.768 35.3407 189.936 35.3407C190.202 35.3407 190.378 35.3818 190.462 35.464C190.392 35.6422 190.279 35.93 190.125 36.3275C189.985 36.7112 189.873 37.0264 189.789 37.2731C189.705 37.5061 189.614 37.7802 189.515 38.0954C189.417 38.4107 189.354 38.6711 189.326 38.8767C188.611 38.8767 187.483 38.8629 185.94 38.8355C184.398 38.8081 183.137 38.7944 182.155 38.7944L179.611 38.8561C179.569 38.815 179.548 38.7053 179.548 38.5272C179.548 38.349 179.569 38.2599 179.611 38.2599C179.793 38.2599 180.059 38.2119 180.41 38.116C180.774 38.0201 180.992 37.9104 181.062 37.7871C181.16 37.6226 181.209 36.9785 181.209 35.8546V28.0837C181.209 27.2751 181.16 26.6858 181.062 26.3157C181.02 26.2061 180.809 26.1033 180.431 26.0073C180.066 25.9114 179.793 25.8634 179.611 25.8634C179.555 25.8634 179.527 25.7812 179.527 25.6167C179.527 25.4386 179.555 25.3221 179.611 25.2673C180.34 25.2947 181.174 25.3084 182.113 25.3084Z" fill="#7B7B7B"/>
<path d="M193.715 28.721C193.715 27.6657 194.128 26.8023 194.955 26.1307C195.782 25.4454 196.743 25.1028 197.836 25.1028C198.145 25.1028 198.432 25.1233 198.698 25.1645C198.979 25.1919 199.203 25.2261 199.371 25.2673C199.554 25.3084 199.806 25.3769 200.128 25.4728C200.465 25.5551 200.759 25.6236 201.012 25.6784C201.18 26.4048 201.264 27.3847 201.264 28.6182C201.264 28.7141 201.194 28.7621 201.054 28.7621C200.717 28.7621 200.535 28.6936 200.507 28.5565C200.437 27.9535 200.135 27.371 199.603 26.8091C199.084 26.2335 198.446 25.9457 197.689 25.9457C196.848 25.9457 196.252 26.1512 195.902 26.5624C195.565 26.9736 195.397 27.4807 195.397 28.0837C195.397 28.3441 195.446 28.5977 195.544 28.8443C195.642 29.0773 195.74 29.2761 195.838 29.4405C195.937 29.5913 196.112 29.7695 196.364 29.975C196.631 30.1806 196.82 30.3245 196.932 30.4068C197.058 30.489 197.296 30.6397 197.647 30.859C198.011 31.0783 198.243 31.2154 198.341 31.2702C198.411 31.3113 198.656 31.4621 199.077 31.7225C199.498 31.9692 199.785 32.1473 199.939 32.257C200.093 32.3529 200.332 32.5379 200.654 32.812C200.991 33.0724 201.229 33.3054 201.369 33.511C201.523 33.7166 201.664 33.977 201.79 34.2922C201.93 34.5937 202 34.909 202 35.2379C202 36.3343 201.558 37.2389 200.675 37.9515C199.806 38.6505 198.783 39 197.605 39C197.268 39 196.911 38.9726 196.532 38.9178C196.154 38.8767 195.838 38.8355 195.586 38.7944C195.334 38.7396 195.011 38.6711 194.619 38.5888C194.24 38.4929 193.974 38.4312 193.82 38.4038C193.469 36.7181 193.294 35.6285 193.294 35.1351C193.294 35.0529 193.406 35.0117 193.63 35.0117C193.883 35.0117 194.058 35.0734 194.156 35.1968C194.633 37.1703 195.796 38.1571 197.647 38.1571C198.348 38.1571 198.944 37.9515 199.434 37.5404C199.925 37.1292 200.17 36.5467 200.17 35.793C200.17 35.5188 200.128 35.2653 200.044 35.0323C199.96 34.7993 199.869 34.6074 199.771 34.4567C199.687 34.3059 199.526 34.1483 199.287 33.9838C199.063 33.8057 198.888 33.6755 198.762 33.5932C198.635 33.511 198.404 33.3808 198.068 33.2026C197.731 33.0245 197.5 32.9011 197.374 32.8326C196.967 32.5996 196.68 32.4351 196.511 32.3392C196.357 32.2433 196.091 32.0788 195.712 31.8458C195.348 31.5991 195.081 31.3867 194.913 31.2085C194.745 31.0166 194.549 30.7905 194.324 30.5301C194.1 30.256 193.939 29.9682 193.841 29.6667C193.757 29.3651 193.715 29.0499 193.715 28.721Z" fill="#7B7B7B"/>
</svg>
