<svg width="188" height="227" viewBox="0 0 188 227" fill="none" xmlns="http://www.w3.org/2000/svg">
<path d="M0 130.525V31.2125L94 0L188 31.2125V130.525C188 170.627 138.062 198.625 94 227C49.9375 198.625 0 170.627 0 130.525Z" fill="#304B75"/>
<path d="M7 130.05V36.425L94 7L181 36.425V130.05C181 167.856 134.781 194.25 94 221C53.2188 194.25 7 167.856 7 130.05Z" fill="white"/>
<path d="M104.862 208.09C101.817 210.062 98.7768 212.03 95.7659 214L95.766 113.64H177V128.781C177 161.387 140.536 184.995 104.867 208.088L104.862 208.09Z" fill="#385E9D"/>
<path d="M92.234 110.398L92.234 13.0048L11 38.9883V110.398H92.234Z" fill="#385E9D"/>
<path d="M177 110.398H95.766V13L177 40.4598V110.398Z" fill="#537AB8"/>
<path d="M11 113.639V128.78C11 161.386 47.4644 184.994 83.1333 208.088L83.1357 208.089C86.1821 210.061 89.2225 212.03 92.234 214L92.234 113.639H11Z" fill="#537AB8"/>
<path d="M30.5933 57.2612C30.7624 57.2612 32.5375 57.1741 35.9187 57C35.9863 57.1393 36.0032 57.4353 35.9694 57.8881C35.9694 58.306 35.9187 58.5149 35.8172 58.5149C35.5805 58.5149 35.2931 58.5498 34.955 58.6194C34.6169 58.6542 34.245 58.8109 33.8392 59.0896C33.4673 59.3333 33.2813 59.6468 33.2813 60.0299C33.2813 61.0746 33.6702 62.3632 34.4478 63.8955L44.9464 85.3134C45.0478 85.4876 45.1831 85.5398 45.3522 85.4701C45.5212 85.3657 45.6396 85.2264 45.7072 85.0522L49.9167 76.0149L44.5914 64.7313C43.6108 62.6766 42.6303 61.005 41.6498 59.7164C41.3793 59.3682 40.9228 59.0896 40.2804 58.8806C39.638 58.6368 39.1139 58.5149 38.7081 58.5149C38.5729 58.5149 38.5053 58.2537 38.5053 57.7313C38.5053 57.3831 38.5729 57.1393 38.7081 57C42.5965 57.1741 44.7266 57.2612 45.0986 57.2612C45.2338 57.2612 46.992 57.1741 50.3732 57C50.4408 57.1393 50.4577 57.4353 50.4239 57.8881C50.4239 58.306 50.3732 58.5149 50.2718 58.5149C50.0351 58.5149 49.7477 58.5498 49.4096 58.6194C49.1053 58.6542 48.7502 58.7935 48.3445 59.0373C47.9726 59.2811 47.7866 59.6119 47.7866 60.0299C47.7866 60.9353 48.1754 62.2239 48.9531 63.8955L52.3005 70.9478L55.8507 63.2687C56.3241 62.1891 56.5608 61.1791 56.5608 60.2388C56.5608 59.6468 56.1888 59.2114 55.445 58.9328C54.7349 58.6542 54.1094 58.5149 53.5684 58.5149C53.4332 58.5149 53.3655 58.306 53.3655 57.8881C53.3655 57.4353 53.4332 57.1393 53.5684 57C56.2734 57.1741 57.9809 57.2612 58.6909 57.2612C58.8262 57.2612 60.5844 57.1741 63.9655 57C64.0332 57.1393 64.0501 57.4353 64.0163 57.8881C64.0163 58.306 63.9655 58.5149 63.8641 58.5149C63.526 58.5149 62.9343 58.6542 62.089 58.9328C61.2775 59.2114 60.7027 59.5597 60.3646 59.9776C59.756 60.7438 58.7754 62.5373 57.423 65.3582L53.5177 73.6119L59.0459 85.3134C59.2488 85.6965 59.4517 85.6095 59.6545 85.0522L68.733 63.5821C69.3078 62.1542 69.5952 61.0572 69.5952 60.291C69.5952 59.699 69.2402 59.2637 68.5301 58.9851C67.8539 58.6716 67.2453 58.5149 66.7043 58.5149C66.5691 58.5149 66.5014 58.306 66.5014 57.8881C66.5014 57.4353 66.5691 57.1393 66.7043 57C69.4092 57.1741 71.1337 57.2612 71.8775 57.2612C72.6552 57.2612 73.2976 57.2438 73.8048 57.209C74.312 57.1741 74.836 57.1393 75.377 57.1045C75.918 57.0697 76.4252 57.0348 76.8986 57C76.9662 57.209 77 57.4701 77 57.7836C77 58.2711 76.9324 58.5149 76.7971 58.5149C76.459 58.5149 75.918 58.6542 75.1742 58.9328C74.4303 59.1766 73.8724 59.5249 73.5005 59.9776C72.5199 61.1617 71.5394 62.9204 70.5588 65.2537L59.8067 90.3284C59.2995 91.4428 58.6402 92 57.8287 92C57.6258 92 57.4737 91.9129 57.3722 91.7388L51.1847 78.6791L45.7072 90.3284C45.2 91.4428 44.5407 92 43.7292 92C43.5263 92 43.3742 91.9129 43.2727 91.7388L30.0861 64.7313C29.1056 62.6766 28.125 61.005 27.1445 59.7164C26.874 59.3682 26.4175 59.0896 25.7751 58.8806C25.1327 58.6368 24.6086 58.5149 24.2029 58.5149C24.0676 58.5149 24 58.2886 24 57.8358C24 57.4179 24.0676 57.1393 24.2029 57C28.0912 57.1741 30.2214 57.2612 30.5933 57.2612Z" fill="white"/>
<path d="M129.692 131.158L140.528 158.905C141.178 160.552 141.702 161.813 142.099 162.689C142.316 163.215 142.876 163.653 143.779 164.003C144.682 164.318 145.35 164.476 145.783 164.476C145.928 164.476 146 164.809 146 165.474C146 165.615 145.964 165.79 145.892 166C142.28 165.825 140.293 165.737 139.932 165.737C139.896 165.737 137.801 165.825 133.647 166C133.503 165.86 133.43 165.58 133.43 165.159C133.466 164.704 133.557 164.476 133.701 164.476C134.135 164.476 134.676 164.388 135.327 164.213C135.977 164.038 136.356 163.81 136.464 163.53C136.537 163.25 136.573 162.969 136.573 162.689C136.573 162.234 136.501 161.708 136.356 161.113C136.248 160.482 136.139 159.991 136.031 159.641L135.814 159.063L133.593 153.125C133.485 152.984 133.376 152.914 133.268 152.914C131.859 152.809 130.487 152.757 129.15 152.757C127.272 152.757 124.978 152.844 122.269 153.02L121.998 153.177L119.669 158.958C119.055 160.71 118.748 161.918 118.748 162.584C118.748 163.075 118.892 163.425 119.181 163.635C119.506 163.88 120.03 164.091 120.752 164.266C121.475 164.406 121.998 164.476 122.324 164.476C122.432 164.476 122.486 164.686 122.486 165.107C122.522 165.527 122.504 165.825 122.432 166C118.82 165.825 116.96 165.737 116.851 165.737C116.129 165.737 115.497 165.755 114.955 165.79C114.413 165.825 113.799 165.86 113.113 165.895C112.463 165.93 111.831 165.965 111.217 166C111.072 165.86 111 165.597 111 165.212C111 164.721 111.072 164.476 111.217 164.476C111.65 164.476 112.21 164.388 112.896 164.213C113.583 164.038 114.052 163.793 114.305 163.477C115.063 162.532 115.912 160.885 116.851 158.538L126.279 135.047C126.351 134.871 126.441 134.591 126.55 134.206C126.694 133.82 126.802 133.54 126.875 133.365C126.947 133.155 127.055 132.909 127.2 132.629C127.344 132.314 127.471 132.086 127.579 131.946C127.687 131.806 127.814 131.648 127.958 131.473C128.139 131.298 128.319 131.175 128.5 131.105C128.717 131.035 128.951 131 129.204 131L129.692 131.158ZM123.407 150.129C125.285 150.199 126.568 150.234 127.254 150.234C128.843 150.234 130.487 150.182 132.184 150.077L132.347 149.814L127.958 138.2L123.299 149.919C123.299 150.059 123.335 150.129 123.407 150.129Z" fill="white"/>
<path d="M76.6647 99.1079L76 99.3444V100.05V119.3C76 123.605 78.5064 127.154 81.8319 130.236C84.5882 132.79 88.0445 135.146 91.3907 137.426C92.0781 137.895 92.7609 138.36 93.432 138.823L94 139.215L94.568 138.823C95.2391 138.36 95.9219 137.895 96.6093 137.426C99.9555 135.146 103.412 132.79 106.168 130.236C109.494 127.154 112 123.605 112 119.3V100.05V99.3444L111.335 99.1079L94.3353 93.0579L94 92.9386L93.6647 93.0579L76.6647 99.1079Z" fill="white" stroke="white" stroke-width="2"/>
<path d="M95.8152 123.431C95.1133 122.727 94.2662 121.707 93.2739 120.372C92.2816 119.036 91.4708 117.883 90.8416 116.912L89.8614 115.455C88.9901 116.062 88.3487 116.536 87.9373 116.876C87.5259 117.191 87.1144 117.689 86.703 118.369C86.3157 119.049 86.1221 119.801 86.1221 120.627C86.1221 122.229 86.6183 123.431 87.6106 124.232C88.6029 125.033 89.8251 125.434 91.2772 125.434C92.0275 125.434 92.8262 125.252 93.6733 124.888C94.5446 124.524 95.2585 124.038 95.8152 123.431ZM92.4389 104.311C91.6403 104.311 90.9626 104.578 90.4059 105.112C89.8493 105.622 89.571 106.29 89.571 107.115C89.571 108.669 90.2002 110.587 91.4587 112.869C92.7173 112.141 93.6249 111.413 94.1815 110.684C94.7624 109.932 95.0528 108.9 95.0528 107.589C95.0528 106.715 94.8108 105.95 94.3267 105.294C93.8427 104.639 93.2134 104.311 92.4389 104.311ZM92.2574 103C93.879 103 95.1617 103.364 96.1056 104.093C97.0495 104.797 97.5215 105.792 97.5215 107.079C97.5215 108.56 97.0495 109.822 96.1056 110.866C95.1617 111.91 93.8306 112.967 92.1122 114.035C93.516 116.414 95.3069 118.83 97.4851 121.282C98.0902 120.36 98.5864 119.473 98.9736 118.624C99.3608 117.774 99.5545 117.24 99.5545 117.021C99.5545 116.803 99.4334 116.657 99.1914 116.584C98.9736 116.487 98.7195 116.439 98.429 116.439C98.1386 116.414 97.9692 116.39 97.9208 116.366C97.8724 116.269 97.8482 116.123 97.8482 115.929C97.8482 115.734 97.8845 115.601 97.9571 115.528H100.825C101.188 115.528 101.563 115.516 101.95 115.492C102.362 115.467 102.834 115.443 103.366 115.419C103.923 115.395 104.407 115.37 104.818 115.346C104.939 115.419 105 115.577 105 115.819C105 116.184 104.927 116.366 104.782 116.366C104.468 116.366 104.02 116.439 103.439 116.584C102.858 116.73 102.471 116.863 102.277 116.985C102.253 117.009 102.084 117.288 101.769 117.822C101.454 118.332 100.994 119.036 100.389 119.935C99.7844 120.833 99.1551 121.659 98.5016 122.411C99.0583 122.994 99.4455 123.395 99.6634 123.613C99.8812 123.832 100.172 124.111 100.535 124.451C100.898 124.766 101.188 124.985 101.406 125.106C101.624 125.203 101.842 125.252 102.059 125.252C102.398 125.252 102.761 125.046 103.149 124.633C103.56 124.22 103.826 123.868 103.947 123.577C104.141 123.577 104.322 123.649 104.492 123.795C104.685 123.941 104.782 124.086 104.782 124.232C104.685 124.426 104.576 124.621 104.455 124.815C104.334 125.009 104.117 125.288 103.802 125.653C103.512 126.017 103.1 126.32 102.568 126.563C102.059 126.781 101.479 126.891 100.825 126.891C100.196 126.891 99.5303 126.672 98.8284 126.235C98.1265 125.798 97.5941 125.361 97.231 124.924L96.6502 124.269C94.5688 126.09 92.3663 127 90.0429 127C87.8889 127 86.1705 126.478 84.8878 125.434C83.6293 124.39 83 122.958 83 121.137C83 119.558 83.5325 118.247 84.5974 117.203C85.6623 116.135 87.1386 115.115 89.0264 114.144C88.5666 113.367 88.2156 112.748 87.9736 112.287C87.7558 111.801 87.5259 111.158 87.2838 110.357C87.0418 109.555 86.9208 108.766 86.9208 107.989C86.9208 106.605 87.429 105.428 88.4455 104.457C89.462 103.486 90.7327 103 92.2574 103Z" fill="#385E9D"/>
</svg>
